<svg t="1651022798063" class="icon" viewBox="0 0 1024 1024" version="1.1" xmlns="http://www.w3.org/2000/svg" p-id="2309" width="512" height="512"><path d="M848.618 5.24a21.328 21.328 0 0 0-27.688-0.234L623.964 170.22a21.354 21.354 0 0 0-7.624 16.594 21.38 21.38 0 0 0 8.032 16.406l62.936 50.294a21.366 21.366 0 0 0 13.312 4.656c1.216 0 2.404-0.094 3.624-0.296 6-1.046 11.282-4.594 14.5-9.766l134-215.496c5.528-8.904 3.778-20.514-4.126-27.372z" fill="#1296db" p-id="2310"></path><path d="M495.06 157.236a21.394 21.394 0 0 0-18.376-11.532s-0.376-0.016-1.124-0.016c-5.312 0-24.874 0.578-52.998 7.938-36.406 9.546-71.686 26.218-104.842 49.562-45.03 31.718-84.748 74.998-118.09 128.652-40.686 65.514-71.998 146.998-93.124 242.152-1.406 6.376 0.188 13.062 4.344 18.124s10.376 7.904 16.968 7.81h1.782c17.374 0 41.842 2.218 58.404 8.438a21.334 21.334 0 0 0 25.282-8.124L493.936 178.86a21.37 21.37 0 0 0 1.124-21.624z" fill="#1296db" p-id="2311"></path><path d="M587.152 1023.982c-1.032 0-2.094-0.062-3.156-0.218a21.39 21.39 0 0 1-17.032-14.188c-24.966-72.904-60.31-139.278-104.998-197.308a642.26 642.26 0 0 0-124.404-122.652c-79.966-59.75-147.496-80.562-148.184-80.782a21.286 21.286 0 0 1-12.812-10.654 21.44 21.44 0 0 1-1.25-16.594c3.876-11.406 95.436-280.26 177.434-362.288 63.28-63.28 129.84-78.686 161.246-82.388l19.844-101.89c1.156-6.016 4.876-11.234 10.156-14.328s11.624-3.782 17.466-1.86c2.282 0.75 22.906 8.062 44.876 32.86 26.344 29.75 43.562 71.234 51.312 123.388 18.092 14.188 68.964 54.484 119.964 98.466 37.344 32.218 67.532 60.154 89.686 83.044 40.468 41.764 47.688 60.14 49.438 71.468 5.188 33.17-6.718 65.342-17.624 86.498-10.844 21.032-25.938 41.124-35.938 47.748-5.844 3.906-18.03 8.532-34.53-3.532-6.5 5-36.062 26.218-66.406 26.218-5.344 0-10.75-0.656-16.032-2.188-18.938-5.5-33.5-25.218-44.562-60.28a321.5 321.5 0 0 1-6.56-24.5c-18.718 0.156-48.53-1.282-79.154-9.468l-13.468 69.154c19.032 29 82.842 133.498 82.842 231.62 0 113.032-77.592 221.308-80.874 225.84a21.326 21.326 0 0 1-17.28 8.814z" fill="#1296db" p-id="2312"></path><path d="M663.962 277.342c0 11.782-9.56 21.328-21.342 21.328s-21.312-9.546-21.312-21.328 9.532-21.328 21.312-21.328 21.342 9.548 21.342 21.328z" fill="#1296db" p-id="2313"></path><path d="M799.96 513.494l14.344 54.874 14.344-9.594zM534.624 465.058s40.874 47.092 76.436 48.436l4.876-24.938-81.312-23.498zM513.998 136.91l-27.906 5.14 22.75 74.686z" fill="#1296db" p-id="2314"></path></svg>